<?xml version="1.0" encoding="UTF-8" standalone="no"?>
<!-- Uploaded to: SVG Repo, www.svgrepo.com, Generator: SVG Repo Mixer Tools -->

<svg
   fill="#000000"
   height="24"
   width="24"
   version="1.1"
   id="Layer_1"
   viewBox="0 0 15.132 15.132"
   xml:space="preserve"
   sodipodi:docname="linkedin.svg"
   inkscape:version="1.4.2 (ebf0e940d0, 2025-05-08)"
   xmlns:inkscape="http://www.inkscape.org/namespaces/inkscape"
   xmlns:sodipodi="http://sodipodi.sourceforge.net/DTD/sodipodi-0.dtd"
   xmlns="http://www.w3.org/2000/svg"
   xmlns:svg="http://www.w3.org/2000/svg"><defs
   id="defs2" /><sodipodi:namedview
   id="namedview2"
   pagecolor="#ffffff"
   bordercolor="#000000"
   borderopacity="0.25"
   inkscape:showpageshadow="2"
   inkscape:pageopacity="0.0"
   inkscape:pagecheckerboard="0"
   inkscape:deskcolor="#d1d1d1"
   showgrid="false"
   inkscape:zoom="12"
   inkscape:cx="7.5"
   inkscape:cy="30.583333"
   inkscape:window-width="1384"
   inkscape:window-height="1392"
   inkscape:window-x="0"
   inkscape:window-y="0"
   inkscape:window-maximized="1"
   inkscape:current-layer="Layer_1" />
<g
   id="g2"
   transform="matrix(0.03,0,0,0.03,0,0.194)">
	<g
   id="g1">
		<path
   d="M 377.6,0.2 H 126.4 C 56.8,0.2 0,57 0,126.6 v 251.6 c 0,69.2 56.8,126 126.4,126 H 378 c 69.6,0 126.4,-56.8 126.4,-126.4 V 126.6 C 504,57 447.2,0.2 377.6,0.2 Z M 168,408.2 H 96 v -208 h 72 z m -36.4,-240 c -20.4,0 -36.8,-16.4 -36.8,-36.8 0,-20.4 16.4,-36.8 36.8,-36.8 20.4,0 36.8,16.4 36.8,36.8 -0.4,20.4 -16.8,36.8 -36.8,36.8 z m 276.8,240 H 408 348 V 307.4 c 0,-24.4 -3.2,-55.6 -36.4,-55.6 -34,0 -39.6,26.4 -39.6,54 v 102.4 h -60 v -208 h 56 v 28 h 1.6 c 8.8,-16 29.2,-28.4 61.2,-28.4 66,0 77.6,38 77.6,94.4 z"
   id="path1" />
	</g>
</g>
</svg>
